<?xml version="1.0" encoding="UTF-8"?><svg id="_01_black_red___noir_rouge_" xmlns="http://www.w3.org/2000/svg" viewBox="0 0 1275.59 283.46"><defs><style>.cls-1{fill:none;stroke:#fff;stroke-miterlimit:10;stroke-width:3px;}.cls-2{fill-rule:evenodd;}.cls-2,.cls-3{fill:#fff;}.cls-2,.cls-3,.cls-4{stroke-width:0px;}.cls-4{fill:#ed1c24;}</style></defs><rect class="cls-4" x="1135.62" y="85.17" width="17.88" height="35.75"/><path class="cls-4" d="M1110.48,108.92c-.06-.06-6.46-5.59-6.46-5.59l.99-.5c.15-.07.25-.15.33-.24.22-.27.16-.62.09-.89-.03-.09-1.1-3.85-1.1-3.85,0,0,3.05.65,3.24.68.06.01.12.02.17.02.05,0,.14,0,.14,0,.26-.04.39-.24.49-.49.04-.08.78-1.88.78-1.88,0,0,3.27,3.61,3.29,3.63.23.21.46.28.65.25.04,0,.07-.02.11-.04.25-.1.41-.38.35-.74-.05-.33-1.65-7.71-1.65-7.71,0,0,1.72,1.02,2.29,1.35.28.17.49.24.67.2.18-.04.33-.19.48-.47.09-.15,2.42-4.75,2.42-4.75,0,0,2.33,4.6,2.42,4.75.15.27.29.42.48.47.18.04.39-.03.67-.2.57-.33,2.29-1.35,2.29-1.35,0,0-1.6,7.39-1.65,7.71-.06.36.1.64.35.74.03.01.07.03.11.04.19.03.42-.04.65-.25.02-.02,3.29-3.63,3.29-3.63,0,0,.74,1.8.78,1.88.1.25.23.45.49.49,0,0,.09,0,.14,0,.05,0,.11,0,.17-.02.19-.03,3.24-.68,3.24-.68,0,0-1.08,3.76-1.1,3.85-.06.26-.13.61.09.89.07.09.18.17.33.24l.99.5s-6.39,5.53-6.46,5.59c-.18.17-.35.43-.13,1.11.05.15.73,2.12.73,2.12,0,0-6.13-1.25-6.23-1.27-.15-.03-.29-.05-.42-.04-.4.03-.68.26-.68.7,0,.61.24,6.63.24,6.63h-1.56s.24-6.03.24-6.63c0-.45-.28-.67-.68-.7-.13,0-.27,0-.42.04-.1.02-6.23,1.27-6.23,1.27,0,0,.68-1.97.73-2.12.22-.68.05-.94-.13-1.11Z"/><rect class="cls-4" x="1081.99" y="85.17" width="17.88" height="35.75"/><path class="cls-2" d="M1126.18,149.31c-.05.63-.16,1.46-.22,1.82-.52,3.18-2.17,4.83-5.31,6.38-4.08,2.01-15.51,3.71-16.96,4.04-4.62,1.05-17.6,4.34-17.31,17.94.28,13.43,13.56,17.96,22.83,17.74,8.99-.22,14.26-4.08,16.61-5.99,1.39-1.12,1.27-.85,2.43.44,1.29,1.44,5.75,5.72,16.08,5.68,10.49-.04,12.05-5.01,12.66-6.54.81-2.04-1.38-3.16-2.17-1.31-1.31,3.08-3.96,3.91-5.78,3.89-2.02-.02-7.97-.5-8.01-15.84,0,0,0-31.61-.01-33.44,0-10.3-7.86-18.73-28.68-18.73-22.39,0-22.51,11.03-22.65,13.77-.17,3.1,1.46,6.37,7.08,6.39,5.08.01,6.27-5.5,6.99-7.61.75-2.2.9-9.01,9.95-8.87,7.7,0,12.47,6.74,12.52,16.36,0,1.25.02,2.21,0,3.11,0,.18-.03.68-.03.76ZM1126.38,174.83c0,10.24-5.28,18.39-13.06,18.39-9.36-.02-11.66-7.81-11.75-11.48-.09-3.67,1.92-11.36,11.16-16.7,0,0,4.2-2.71,12.49-5.9.22-.06.39-.06.51-.04.15.02.28.14.28.14.11.13.31.47.3,1.62,0,.33.08,13.97.08,13.97Z"/><path class="cls-2" d="M1073.06,88.85c0-.99-.12-3.58-3.13-3.54-3.02.04-23.02,1.07-24.43,1.2-1.4.12-2.48,1.52-.03,1.73,2.42.21,13.12,1.07,13.12,18.7,0,8.55.02,17.23.01,23.54,0,.27.07,1.99-.3,2.3-.3.25-.58.13-1.62-.63-1.62-1.25-9.28-6-18.9-6.02-15.72-.04-35.03,11.17-35.03,34.7,0,24.92,17.66,36.76,35.99,36.76,8.91,0,15.25-3.99,17.49-5.36,2.54-1.56,2.33-1.44,2.78.86.36,1.77.15,4.95,4.64,4.5,5.12-.51,16.89-1.98,19.35-2.47,2.37-.48,1.81-2.02-.33-2.28-1.45-.17-9.62.78-9.62-24.47v-79.52ZM1058.54,166.81c-.29,19.86-8.32,27-17.2,26.98-14.5-.04-22.17-17.37-22.17-33.96,0-18.4,10.25-30.59,21.22-29.95,14.44.84,17.89,12.32,18.14,32.74.01,1.35.02,4.2.02,4.2Z"/><path class="cls-2" d="M974.03,149.31c-.05.63-.16,1.46-.22,1.82-.52,3.18-2.17,4.83-5.31,6.38-4.08,2.01-15.51,3.71-16.96,4.04-4.62,1.05-17.6,4.34-17.31,17.94.28,13.43,13.56,17.96,22.83,17.74,8.99-.22,14.26-4.08,16.61-5.99,1.39-1.12,1.27-.85,2.43.44,1.29,1.44,5.75,5.72,16.08,5.68,10.49-.04,12.05-5.01,12.66-6.54.81-2.04-1.38-3.16-2.17-1.31-1.31,3.08-3.96,3.91-5.78,3.89-2.02-.02-7.97-.5-8.01-15.84,0,0,0-31.61-.01-33.44,0-10.3-7.86-18.73-28.68-18.73-22.39,0-22.51,11.03-22.65,13.77-.17,3.1,1.46,6.37,7.08,6.39,5.08.01,6.27-5.5,6.99-7.61.75-2.2.9-9.01,9.95-8.87,7.7,0,12.47,6.74,12.52,16.36,0,1.25.02,2.21,0,3.11,0,.18-.03.68-.03.76ZM974.23,174.83c0,10.24-5.28,18.39-13.06,18.39-9.36-.02-11.66-7.81-11.75-11.48-.09-3.67,1.92-11.36,11.16-16.7,0,0,4.2-2.71,12.49-5.9.22-.06.39-.06.51-.04.15.02.28.14.28.14.11.13.31.47.3,1.62,0,.33.08,13.97.08,13.97Z"/><path class="cls-2" d="M907.06,178.34c0,11.49-3.34,15.25-7.26,16.03-3.62.72-2.85,2.47-1.15,2.46.75,0,30.79,0,30.84,0,2.52,0,4.24-1.62-.22-2.65-2.73-.61-7.28-3.72-7.28-18.17l-.07-28.23c-.05-6.39.66-22.49-24.45-22.49-12.82,0-20.33,6.51-21.08,7.08-1.16.9-1.65,1.32-2.16-.38-.39-1.3-1.07-3.47-1.47-4.59-.38-1.12-.85-2.07-3.29-1.73-2.44.34-17.07,2.65-19.5,3.26-2.43.6-1.79,1.63-.02,1.93,1.76.29,9.63.93,9.58,14.58-.04,13.66-.01,30.1-.01,30.1.08,16.47-3.41,17.97-6.46,18.8-3.97,1.09-2.12,2.47-.22,2.48.04,0,29.58.01,30.33,0,2.03-.03,2.92-1.86-1.16-2.55-3.93-.65-7.67-2.97-7.59-15.91,0-1.27,0-17.16-.03-19.78-.1-6.86-1.71-28.39,17.7-28.57,13.55-.44,14.86,10.88,14.93,18.41l.03,29.91Z"/><path class="cls-2" d="M819.87,149.31c-.05.63-.16,1.46-.22,1.82-.52,3.18-2.17,4.83-5.31,6.38-4.08,2.01-15.51,3.71-16.96,4.04-4.62,1.05-17.6,4.34-17.31,17.94.28,13.43,13.56,17.96,22.83,17.74,8.99-.22,14.26-4.08,16.61-5.99,1.39-1.12,1.27-.85,2.43.44,1.29,1.44,5.75,5.72,16.08,5.68,10.49-.04,12.05-5.01,12.66-6.54.81-2.04-1.38-3.16-2.17-1.31-1.31,3.08-3.96,3.91-5.78,3.89-2.02-.02-7.97-.5-8.01-15.84,0,0,0-31.61-.01-33.44,0-10.3-7.86-18.73-28.68-18.73-22.39,0-22.51,11.03-22.65,13.77-.17,3.1,1.46,6.37,7.08,6.39,5.08.01,6.27-5.5,6.99-7.61.75-2.2.9-9.01,9.95-8.87,7.7,0,12.47,6.74,12.52,16.36,0,1.25.02,2.21,0,3.11,0,.18-.03.68-.03.76ZM820.07,174.83c0,10.24-5.28,18.39-13.06,18.39-9.36-.02-11.66-7.81-11.75-11.48-.09-3.67,1.92-11.36,11.16-16.7,0,0,4.2-2.71,12.49-5.9.22-.06.39-.06.51-.04.15.02.28.14.28.14.11.13.31.47.3,1.62,0,.33.08,13.97.08,13.97Z"/><path class="cls-2" d="M762.32,90.34c1.24.44,5.05,1.9,6.26-.97.38-.91.63-1.51.89-1.96.46-.78,1.09-1.08,1.49-1.22.99-.31,2.13.07,2.46,2.03.55,3.31,2.49,31.95,2.59,33.48.19,3.37-4.36,3.71-4.61.38-.33-4.41-9.17-33.48-33.31-32.99-21.52.44-35.69,25.33-34.86,57.51.78,30.08,15.28,46.66,39.07,46.18,22.91-.47,29.29-17.9,32.67-28.56,1.4-4.42,5.5-3.19,4.54.85-4.23,17.79-17.68,32.84-42,33.34-26.58.54-55.26-19.55-55.99-55.05-.75-36.56,28.14-57.73,56.65-58.31,6.15-.13,11.2.86,15.23,2.06,2.29.68,8.92,3.23,8.92,3.23Z"/><path class="cls-3" d="M58.03,87.27h18.41v3.25h-14.81v8.06h13.03v3.16h-13.03v12.07h-3.6v-26.54Z"/><path class="cls-3" d="M83.1,94.46v12.85c0,.99.15,1.79.46,2.42.56,1.16,1.61,1.73,3.15,1.73,2.21,0,3.71-1.01,4.5-3.04.43-1.08.65-2.57.65-4.46v-9.5h3.25v19.35h-3.07l.04-2.85c-.41.73-.93,1.35-1.54,1.86-1.22,1.01-2.69,1.52-4.43,1.52-2.71,0-4.55-.92-5.53-2.76-.53-.99-.8-2.31-.8-3.96v-13.15h3.32Z"/><path class="cls-3" d="M100.43,94.46h3.09v2.75c.92-1.13,1.88-1.94,2.91-2.44,1.02-.49,2.16-.74,3.41-.74,2.75,0,4.6.96,5.56,2.87.53,1.05.79,2.55.79,4.5v12.41h-3.31v-12.19c0-1.18-.17-2.13-.52-2.85-.58-1.2-1.63-1.81-3.14-1.81-.77,0-1.4.08-1.9.23-.89.27-1.67.79-2.35,1.59-.54.64-.89,1.3-1.06,1.98-.16.68-.24,1.65-.24,2.92v10.14h-3.25v-19.35Z"/><path class="cls-3" d="M131.64,95.06c.58.36,1.23.99,1.96,1.9v-9.77h3.13v26.63h-2.93v-2.69c-.76,1.19-1.65,2.05-2.68,2.58-1.03.53-2.21.79-3.55.79-2.15,0-4.01-.91-5.58-2.72-1.57-1.81-2.36-4.22-2.36-7.24,0-2.82.72-5.26,2.15-7.33,1.43-2.07,3.48-3.1,6.15-3.1,1.48,0,2.71.31,3.71.94ZM124.38,109.57c.88,1.4,2.28,2.1,4.21,2.1,1.5,0,2.73-.65,3.69-1.94.96-1.29,1.45-3.15,1.45-5.57s-.5-4.25-1.49-5.43c-1-1.17-2.22-1.76-3.69-1.76-1.63,0-2.95.63-3.96,1.88-1.01,1.25-1.52,3.1-1.52,5.53,0,2.07.44,3.81,1.31,5.2Z"/><path class="cls-3" d="M153.54,95c1.28.64,2.26,1.48,2.93,2.5.65.98,1.08,2.11,1.29,3.41.19.89.29,2.31.29,4.26h-14.07c.06,1.97.52,3.55,1.38,4.74.86,1.19,2.19,1.78,4,1.78,1.69,0,3.03-.56,4.03-1.69.56-.65.96-1.41,1.19-2.27h3.2c-.08.71-.36,1.5-.84,2.38-.48.87-1.01,1.59-1.59,2.14-.98.96-2.19,1.61-3.64,1.95-.78.19-1.66.29-2.64.29-2.39,0-4.42-.88-6.09-2.63-1.66-1.75-2.5-4.21-2.5-7.36s.84-5.63,2.51-7.57c1.68-1.94,3.87-2.91,6.57-2.91,1.36,0,2.69.32,3.97.97ZM154.7,102.59c-.13-1.41-.44-2.54-.91-3.38-.88-1.57-2.36-2.35-4.43-2.35-1.48,0-2.72.54-3.73,1.62-1,1.08-1.53,2.45-1.59,4.11h10.66Z"/><path class="cls-3" d="M172.79,95.06c.58.36,1.23.99,1.96,1.9v-9.77h3.13v26.63h-2.93v-2.69c-.76,1.19-1.65,2.05-2.68,2.58-1.03.53-2.21.79-3.55.79-2.15,0-4.01-.91-5.58-2.72-1.57-1.81-2.36-4.22-2.36-7.24,0-2.82.72-5.26,2.15-7.33,1.43-2.07,3.48-3.1,6.15-3.1,1.48,0,2.71.31,3.71.94ZM165.54,109.57c.87,1.4,2.28,2.1,4.21,2.1,1.5,0,2.73-.65,3.69-1.94.96-1.29,1.45-3.15,1.45-5.57s-.5-4.25-1.49-5.43c-.99-1.17-2.22-1.76-3.68-1.76-1.63,0-2.95.63-3.96,1.88-1.01,1.25-1.52,3.1-1.52,5.53,0,2.07.44,3.81,1.31,5.2Z"/><path class="cls-3" d="M193.02,87.27h3.31v3.69h-3.31v-3.69ZM193.02,94.55h3.31v19.26h-3.31v-19.26Z"/><path class="cls-3" d="M201.24,94.46h3.09v2.75c.92-1.13,1.88-1.94,2.91-2.44,1.02-.49,2.16-.74,3.41-.74,2.75,0,4.6.96,5.56,2.87.53,1.05.79,2.55.79,4.5v12.41h-3.31v-12.19c0-1.18-.17-2.13-.52-2.85-.58-1.2-1.62-1.81-3.14-1.81-.77,0-1.4.08-1.9.23-.89.27-1.67.79-2.35,1.59-.54.64-.89,1.3-1.06,1.98-.16.68-.24,1.65-.24,2.92v10.14h-3.25v-19.35Z"/><path class="cls-3" d="M231.83,94.55h3.18v2.57c.65-.88,1.37-1.56,2.14-2.04,1.1-.72,2.39-1.08,3.88-1.08,2.2,0,4.06.84,5.6,2.52,1.53,1.68,2.3,4.08,2.3,7.2,0,4.22-1.11,7.23-3.32,9.03-1.4,1.14-3.04,1.72-4.9,1.72-1.46,0-2.69-.32-3.68-.96-.58-.36-1.23-.98-1.94-1.86v9.88h-3.25v-26.97ZM244.06,109.72c1.01-1.27,1.51-3.17,1.51-5.7,0-1.54-.22-2.87-.67-3.97-.85-2.13-2.39-3.2-4.64-3.2s-3.81,1.13-4.64,3.38c-.45,1.2-.67,2.73-.67,4.59,0,1.49.22,2.76.67,3.81.85,2,2.39,3,4.64,3,1.52,0,2.79-.64,3.8-1.91Z"/><path class="cls-3" d="M263.04,102.1c.75-.1,1.25-.41,1.5-.94.14-.29.22-.71.22-1.25,0-1.11-.39-1.92-1.18-2.42-.79-.5-1.91-.75-3.38-.75-1.7,0-2.9.46-3.61,1.38-.4.51-.66,1.27-.78,2.27h-3.04c.06-2.39.83-4.06,2.32-4.99,1.49-.94,3.21-1.4,5.17-1.4,2.27,0,4.12.43,5.54,1.3,1.41.87,2.11,2.22,2.11,4.05v11.15c0,.34.07.61.21.81.14.2.43.31.88.31.14,0,.31,0,.49-.03.18-.02.37-.04.58-.08v2.4c-.51.14-.89.23-1.16.27-.27.04-.63.05-1.08.05-1.12,0-1.93-.4-2.44-1.19-.26-.42-.45-1.02-.56-1.79-.66.87-1.61,1.62-2.85,2.26-1.24.64-2.61.96-4.1.96-1.79,0-3.26-.54-4.4-1.63-1.14-1.09-1.71-2.45-1.71-4.09,0-1.79.56-3.18,1.68-4.17,1.12-.99,2.59-1.59,4.41-1.82l5.18-.65ZM256.2,110.89c.69.54,1.5.81,2.44.81,1.14,0,2.25-.26,3.32-.79,1.81-.88,2.71-2.31,2.71-4.31v-2.62c-.4.25-.91.47-1.53.63-.62.17-1.24.29-1.84.36l-1.96.25c-1.18.16-2.06.4-2.66.74-1.01.56-1.51,1.47-1.51,2.7,0,.94.34,1.68,1.03,2.22Z"/><path class="cls-3" d="M273.34,94.46h3.09v3.34c.25-.65.87-1.44,1.86-2.38.99-.93,2.12-1.4,3.41-1.4.06,0,.16,0,.31.02.14.01.39.04.74.07v3.43c-.19-.04-.37-.06-.53-.07-.16-.01-.34-.02-.53-.02-1.64,0-2.9.53-3.78,1.58-.88,1.05-1.32,2.27-1.32,3.64v11.13h-3.25v-19.35Z"/><path class="cls-3" d="M286.22,89.06h3.29v5.4h3.09v2.66h-3.09v12.63c0,.67.23,1.13.69,1.35.25.13.67.2,1.26.2.16,0,.33,0,.51-.01s.39-.03.63-.06v2.58c-.37.11-.76.19-1.17.23-.4.05-.84.07-1.31.07-1.52,0-2.55-.39-3.09-1.17-.54-.78-.81-1.79-.81-3.03v-12.81h-2.62v-2.66h2.62v-5.4Z"/><path class="cls-3" d="M305.86,87.18h3.16v9.63c.71-.93,1.57-1.64,2.56-2.12.99-.49,2.07-.73,3.23-.73,2.42,0,4.38.83,5.88,2.48,1.51,1.66,2.26,4.1,2.26,7.33,0,3.06-.74,5.6-2.23,7.62s-3.55,3.04-6.18,3.04c-1.47,0-2.72-.36-3.74-1.07-.61-.42-1.25-1.1-1.94-2.02v2.48h-3v-26.63ZM318.3,109.46c.88-1.4,1.31-3.24,1.31-5.53,0-2.04-.44-3.72-1.31-5.06s-2.17-2.01-3.87-2.01c-1.49,0-2.79.55-3.91,1.64-1.12,1.1-1.68,2.9-1.68,5.42,0,1.82.23,3.29.69,4.43.86,2.13,2.46,3.2,4.8,3.2,1.76,0,3.08-.7,3.96-2.1Z"/><path class="cls-3" d="M338.81,94.46h3.59c-.46,1.24-1.48,4.07-3.05,8.5-1.18,3.33-2.17,6.04-2.96,8.13-1.88,4.93-3.2,7.94-3.97,9.03-.77,1.08-2.09,1.62-3.97,1.62-.46,0-.81-.02-1.06-.05s-.55-.1-.91-.2v-2.96c.56.16.97.25,1.23.29.25.04.48.05.67.05.6,0,1.04-.1,1.33-.3.28-.2.52-.44.71-.73.06-.1.28-.59.65-1.48.37-.89.64-1.55.81-1.98l-7.15-19.92h3.69l5.18,15.76,5.22-15.76Z"/><path class="cls-3" d="M356.14,89.06h3.29v5.4h3.09v2.66h-3.09v12.63c0,.67.23,1.13.69,1.35.25.13.67.2,1.26.2.16,0,.33,0,.51-.01s.39-.03.63-.06v2.58c-.37.11-.76.19-1.17.23-.4.05-.84.07-1.31.07-1.52,0-2.55-.39-3.09-1.17-.54-.78-.81-1.79-.81-3.03v-12.81h-2.62v-2.66h2.62v-5.4Z"/><path class="cls-3" d="M365.77,87.18h3.25v9.9c.77-.98,1.46-1.66,2.08-2.06,1.05-.69,2.35-1.03,3.92-1.03,2.81,0,4.71.98,5.71,2.94.54,1.07.81,2.56.81,4.46v12.41h-3.34v-12.19c0-1.42-.18-2.46-.54-3.13-.59-1.06-1.7-1.59-3.32-1.59-1.35,0-2.57.46-3.67,1.39-1.1.93-1.64,2.68-1.64,5.26v10.26h-3.25v-26.63Z"/><path class="cls-3" d="M398.3,95c1.28.64,2.26,1.48,2.93,2.5.65.98,1.08,2.11,1.29,3.41.19.89.29,2.31.29,4.26h-14.07c.06,1.97.52,3.55,1.38,4.74.86,1.19,2.19,1.78,4,1.78,1.68,0,3.03-.56,4.03-1.69.56-.65.96-1.41,1.19-2.27h3.2c-.08.71-.36,1.5-.84,2.38-.48.87-1.01,1.59-1.59,2.14-.98.96-2.19,1.61-3.64,1.95-.78.19-1.66.29-2.64.29-2.39,0-4.42-.88-6.09-2.63-1.66-1.75-2.5-4.21-2.5-7.36s.84-5.63,2.51-7.57c1.67-1.94,3.87-2.91,6.57-2.91,1.36,0,2.69.32,3.97.97ZM399.46,102.59c-.13-1.41-.44-2.54-.91-3.38-.88-1.57-2.36-2.35-4.42-2.35-1.48,0-2.72.54-3.73,1.62-1,1.08-1.54,2.45-1.59,4.11h10.66Z"/><path class="cls-3" d="M435.31,88.03c2.6,1.39,4.19,3.81,4.77,7.28h-3.56c-.42-1.94-1.3-3.35-2.64-4.24-1.33-.89-3.01-1.33-5.04-1.33-2.41,0-4.43.92-6.08,2.76-1.65,1.84-2.47,4.59-2.47,8.24,0,3.16.68,5.72,2.04,7.71,1.36,1.98,3.57,2.97,6.64,2.97,2.35,0,4.29-.7,5.83-2.09,1.54-1.39,2.33-3.64,2.36-6.75h-8.31v-2.98h11.65v14.2h-2.31l-.87-3.41c-1.2,1.34-2.26,2.26-3.18,2.78-1.55.89-3.53,1.34-5.92,1.34-3.09,0-5.75-1.02-7.98-3.05-2.43-2.55-3.64-6.06-3.64-10.51s1.19-7.98,3.56-10.6c2.26-2.5,5.18-3.76,8.76-3.76,2.46,0,4.58.48,6.37,1.45Z"/><path class="cls-3" d="M460,96.39c1.71,1.66,2.57,4.1,2.57,7.33s-.75,5.69-2.26,7.73-3.84,3.05-7.01,3.05c-2.64,0-4.74-.9-6.3-2.7-1.55-1.8-2.33-4.21-2.33-7.25,0-3.25.82-5.84,2.46-7.76s3.84-2.89,6.6-2.89c2.48,0,4.57.83,6.28,2.49ZM457.99,109.25c.79-1.63,1.19-3.44,1.19-5.44,0-1.8-.29-3.27-.86-4.4-.91-1.78-2.47-2.67-4.68-2.67-1.96,0-3.39.76-4.29,2.27-.89,1.52-1.34,3.34-1.34,5.49s.45,3.77,1.34,5.14c.89,1.37,2.31,2.06,4.25,2.06,2.13,0,3.59-.81,4.38-2.44Z"/><path class="cls-3" d="M468.16,94.46l5.17,15.75,5.38-15.75h3.56l-7.28,19.35h-3.47l-7.14-19.35h3.78Z"/><path class="cls-3" d="M497.01,95c1.28.64,2.26,1.48,2.93,2.5.65.98,1.08,2.11,1.29,3.41.19.89.29,2.31.29,4.26h-14.07c.06,1.97.52,3.55,1.38,4.74.86,1.19,2.19,1.78,4,1.78,1.68,0,3.03-.56,4.03-1.69.56-.65.96-1.41,1.19-2.27h3.2c-.08.71-.36,1.5-.84,2.38-.48.87-1.01,1.59-1.59,2.14-.98.96-2.19,1.61-3.64,1.95-.78.19-1.66.29-2.64.29-2.39,0-4.42-.88-6.09-2.63-1.66-1.75-2.5-4.21-2.5-7.36s.84-5.63,2.51-7.57c1.67-1.94,3.87-2.91,6.57-2.91,1.36,0,2.69.32,3.97.97ZM498.18,102.59c-.13-1.41-.44-2.54-.91-3.38-.88-1.57-2.36-2.35-4.42-2.35-1.48,0-2.72.54-3.73,1.62-1,1.08-1.54,2.45-1.59,4.11h10.66Z"/><path class="cls-3" d="M505.73,94.46h3.09v3.34c.25-.65.87-1.44,1.86-2.38.99-.93,2.12-1.4,3.41-1.4.06,0,.16,0,.31.02.14.01.39.04.74.07v3.43c-.19-.04-.37-.06-.53-.07-.16-.01-.34-.02-.53-.02-1.64,0-2.9.53-3.78,1.58-.88,1.05-1.32,2.27-1.32,3.64v11.13h-3.25v-19.35Z"/><path class="cls-3" d="M517.96,94.46h3.09v2.75c.92-1.13,1.88-1.94,2.91-2.44,1.02-.49,2.16-.74,3.41-.74,2.75,0,4.6.96,5.56,2.87.53,1.05.79,2.55.79,4.5v12.41h-3.31v-12.19c0-1.18-.17-2.13-.52-2.85-.58-1.2-1.62-1.81-3.14-1.81-.77,0-1.4.08-1.9.23-.89.27-1.67.79-2.35,1.59-.54.64-.89,1.3-1.06,1.98-.16.68-.24,1.65-.24,2.92v10.14h-3.25v-19.35Z"/><path class="cls-3" d="M538.54,94.46h3.22v2.75c.77-.95,1.47-1.64,2.1-2.08,1.07-.73,2.29-1.1,3.65-1.1,1.54,0,2.78.38,3.72,1.14.53.43,1.01,1.07,1.45,1.92.72-1.04,1.57-1.8,2.55-2.3.97-.5,2.07-.75,3.29-.75,2.6,0,4.37.94,5.31,2.82.51,1.01.76,2.37.76,4.08v12.88h-3.38v-13.44c0-1.29-.32-2.17-.97-2.66-.64-.48-1.43-.72-2.36-.72-1.28,0-2.38.43-3.3,1.28-.92.86-1.38,2.28-1.38,4.28v11.26h-3.31v-12.63c0-1.31-.16-2.27-.47-2.87-.49-.9-1.42-1.35-2.76-1.35-1.23,0-2.35.48-3.35,1.43-1.01.95-1.51,2.67-1.51,5.17v10.26h-3.25v-19.35Z"/><path class="cls-3" d="M581.31,95c1.28.64,2.26,1.48,2.93,2.5.65.98,1.08,2.11,1.29,3.41.19.89.29,2.31.29,4.26h-14.07c.06,1.97.52,3.55,1.38,4.74.86,1.19,2.19,1.78,4,1.78,1.68,0,3.03-.56,4.03-1.69.56-.65.96-1.41,1.19-2.27h3.2c-.08.71-.36,1.5-.84,2.38-.48.87-1.01,1.59-1.59,2.14-.98.96-2.19,1.61-3.64,1.95-.78.19-1.66.29-2.64.29-2.39,0-4.42-.88-6.09-2.63-1.66-1.75-2.5-4.21-2.5-7.36s.84-5.63,2.51-7.57c1.67-1.94,3.87-2.91,6.57-2.91,1.36,0,2.69.32,3.97.97ZM582.48,102.59c-.13-1.41-.44-2.54-.91-3.38-.88-1.57-2.36-2.35-4.42-2.35-1.48,0-2.72.54-3.73,1.62-1,1.08-1.54,2.45-1.59,4.11h10.66Z"/><path class="cls-3" d="M589.94,94.46h3.09v2.75c.92-1.13,1.88-1.94,2.91-2.44,1.02-.49,2.16-.74,3.41-.74,2.75,0,4.6.96,5.56,2.87.53,1.05.79,2.55.79,4.5v12.41h-3.31v-12.19c0-1.18-.17-2.13-.52-2.85-.58-1.2-1.62-1.81-3.14-1.81-.77,0-1.4.08-1.9.23-.89.27-1.67.79-2.35,1.59-.54.64-.89,1.3-1.06,1.98-.16.68-.24,1.65-.24,2.92v10.14h-3.25v-19.35Z"/><path class="cls-3" d="M611.17,89.06h3.29v5.4h3.09v2.66h-3.09v12.63c0,.67.23,1.13.69,1.35.25.13.67.2,1.26.2.16,0,.33,0,.51-.01s.39-.03.63-.06v2.58c-.37.11-.76.19-1.17.23-.4.05-.84.07-1.31.07-1.52,0-2.55-.39-3.09-1.17-.54-.78-.81-1.79-.81-3.03v-12.81h-2.62v-2.66h2.62v-5.4Z"/><path class="cls-3" d="M71.27,135.39c1.71,1.66,2.57,4.1,2.57,7.33s-.75,5.69-2.26,7.73-3.84,3.05-7.01,3.05c-2.64,0-4.74-.9-6.3-2.7-1.55-1.8-2.33-4.21-2.33-7.25,0-3.25.82-5.84,2.46-7.76,1.64-1.93,3.84-2.89,6.6-2.89,2.48,0,4.57.83,6.28,2.49ZM69.25,148.25c.79-1.63,1.19-3.44,1.19-5.44,0-1.8-.29-3.27-.86-4.4-.91-1.78-2.47-2.67-4.68-2.67-1.97,0-3.39.76-4.29,2.27-.89,1.52-1.34,3.34-1.34,5.49s.45,3.77,1.34,5.14c.89,1.37,2.31,2.06,4.25,2.06,2.13,0,3.59-.81,4.39-2.44Z"/><path class="cls-3" d="M79.35,127.56c.76-1.11,2.22-1.66,4.39-1.66.2,0,.42,0,.63.02.22.01.46.03.74.05v2.96c-.34-.02-.59-.04-.74-.04-.15,0-.3,0-.43,0-1,0-1.6.26-1.79.77-.19.51-.29,1.82-.29,3.91h3.25v2.57h-3.25v16.69h-3.22v-16.69h-2.69v-2.57h2.69v-3.04c.05-1.35.28-2.34.7-2.96Z"/><path class="cls-3" d="M117.59,128.21c1.83,1.77,2.85,3.78,3.05,6.03h-3.5c-.39-1.71-1.17-3.06-2.33-4.06-1.17-1-2.8-1.5-4.91-1.5-2.57,0-4.64.92-6.22,2.76s-2.37,4.66-2.37,8.45c0,3.11.71,5.63,2.14,7.57,1.43,1.93,3.55,2.9,6.38,2.9,2.6,0,4.58-1.02,5.95-3.05.72-1.07,1.26-2.48,1.61-4.23h3.5c-.31,2.79-1.33,5.14-3.07,7.03-2.08,2.28-4.89,3.41-8.43,3.41-3.05,0-5.61-.93-7.68-2.8-2.73-2.47-4.09-6.29-4.09-11.44,0-3.92,1.02-7.13,3.07-9.64,2.21-2.72,5.27-4.09,9.16-4.09,3.32,0,5.9.89,7.73,2.66Z"/><path class="cls-3" d="M135.48,141.1c.75-.1,1.25-.41,1.5-.94.14-.29.22-.71.22-1.25,0-1.11-.39-1.92-1.18-2.42-.79-.5-1.91-.75-3.38-.75-1.69,0-2.9.46-3.61,1.38-.4.51-.66,1.27-.78,2.27h-3.04c.06-2.39.83-4.06,2.32-4.99,1.49-.94,3.21-1.4,5.17-1.4,2.27,0,4.12.43,5.54,1.3,1.41.87,2.11,2.22,2.11,4.05v11.15c0,.34.07.61.21.81.14.2.43.31.88.31.14,0,.31,0,.49-.03.18-.02.37-.04.58-.08v2.4c-.51.14-.89.23-1.16.27-.27.04-.63.05-1.08.05-1.12,0-1.93-.4-2.44-1.19-.27-.42-.45-1.02-.56-1.79-.66.87-1.61,1.62-2.85,2.26-1.24.64-2.61.96-4.1.96-1.79,0-3.26-.54-4.4-1.63-1.14-1.09-1.71-2.45-1.71-4.09,0-1.79.56-3.18,1.68-4.17s2.59-1.59,4.41-1.82l5.19-.65ZM128.63,149.89c.69.54,1.5.81,2.44.81,1.14,0,2.25-.26,3.32-.79,1.81-.88,2.71-2.31,2.71-4.31v-2.62c-.4.25-.91.47-1.53.63-.62.17-1.24.29-1.84.36l-1.97.25c-1.18.16-2.06.4-2.66.74-1.01.56-1.51,1.47-1.51,2.7,0,.94.34,1.68,1.03,2.22Z"/><path class="cls-3" d="M145.69,133.46h3.09v2.75c.92-1.13,1.88-1.94,2.91-2.44,1.02-.49,2.16-.74,3.41-.74,2.75,0,4.6.96,5.56,2.87.53,1.05.79,2.55.79,4.5v12.41h-3.31v-12.19c0-1.18-.17-2.13-.52-2.85-.58-1.2-1.62-1.81-3.14-1.81-.77,0-1.4.08-1.9.23-.89.27-1.67.79-2.35,1.59-.54.64-.89,1.3-1.06,1.98-.16.68-.24,1.65-.24,2.92v10.14h-3.25v-19.35Z"/><path class="cls-3" d="M176.63,141.1c.75-.1,1.25-.41,1.5-.94.14-.29.22-.71.22-1.25,0-1.11-.39-1.92-1.18-2.42-.79-.5-1.91-.75-3.38-.75-1.7,0-2.9.46-3.61,1.38-.4.51-.66,1.27-.78,2.27h-3.04c.06-2.39.83-4.06,2.32-4.99,1.49-.94,3.21-1.4,5.17-1.4,2.27,0,4.12.43,5.54,1.3,1.41.87,2.11,2.22,2.11,4.05v11.15c0,.34.07.61.21.81.14.2.43.31.88.31.14,0,.31,0,.49-.03.18-.02.37-.04.58-.08v2.4c-.51.14-.89.23-1.16.27-.27.04-.63.05-1.08.05-1.12,0-1.93-.4-2.44-1.19-.26-.42-.45-1.02-.56-1.79-.66.87-1.61,1.62-2.85,2.26-1.24.64-2.61.96-4.1.96-1.79,0-3.26-.54-4.4-1.63-1.14-1.09-1.71-2.45-1.71-4.09,0-1.79.56-3.18,1.68-4.17,1.12-.99,2.59-1.59,4.41-1.82l5.18-.65ZM169.79,149.89c.69.54,1.5.81,2.44.81,1.14,0,2.25-.26,3.32-.79,1.81-.88,2.71-2.31,2.71-4.31v-2.62c-.4.25-.91.47-1.53.63-.62.17-1.24.29-1.84.36l-1.96.25c-1.18.16-2.06.4-2.66.74-1.01.56-1.51,1.47-1.51,2.7,0,.94.34,1.68,1.03,2.22Z"/><path class="cls-3" d="M197.47,134.06c.58.36,1.23.99,1.96,1.9v-9.77h3.13v26.63h-2.93v-2.69c-.76,1.19-1.65,2.05-2.68,2.58-1.03.53-2.21.79-3.55.79-2.15,0-4.01-.91-5.58-2.72-1.57-1.81-2.36-4.22-2.36-7.24,0-2.82.72-5.26,2.15-7.33,1.43-2.07,3.48-3.1,6.15-3.1,1.48,0,2.71.31,3.71.94ZM190.21,148.57c.87,1.4,2.28,2.1,4.21,2.1,1.5,0,2.73-.65,3.69-1.94.96-1.29,1.45-3.15,1.45-5.57s-.5-4.25-1.49-5.43c-.99-1.17-2.22-1.76-3.68-1.76-1.63,0-2.95.63-3.96,1.88-1.01,1.25-1.52,3.1-1.52,5.53,0,2.07.44,3.81,1.31,5.2Z"/><path class="cls-3" d="M217.79,141.1c.75-.1,1.25-.41,1.5-.94.14-.29.22-.71.22-1.25,0-1.11-.39-1.92-1.18-2.42-.79-.5-1.91-.75-3.38-.75-1.7,0-2.9.46-3.61,1.38-.4.51-.66,1.27-.78,2.27h-3.04c.06-2.39.83-4.06,2.32-4.99,1.49-.94,3.21-1.4,5.17-1.4,2.27,0,4.12.43,5.54,1.3,1.41.87,2.11,2.22,2.11,4.05v11.15c0,.34.07.61.21.81.14.2.43.31.88.31.14,0,.31,0,.49-.03.18-.02.37-.04.58-.08v2.4c-.51.14-.89.23-1.16.27-.27.04-.63.05-1.08.05-1.12,0-1.93-.4-2.44-1.19-.26-.42-.45-1.02-.56-1.79-.66.87-1.61,1.62-2.85,2.26-1.24.64-2.61.96-4.1.96-1.79,0-3.26-.54-4.4-1.63-1.14-1.09-1.71-2.45-1.71-4.09,0-1.79.56-3.18,1.68-4.17,1.12-.99,2.59-1.59,4.41-1.82l5.18-.65ZM210.94,149.89c.69.54,1.5.81,2.44.81,1.14,0,2.25-.26,3.32-.79,1.81-.88,2.71-2.31,2.71-4.31v-2.62c-.4.25-.91.47-1.53.63-.62.17-1.24.29-1.84.36l-1.96.25c-1.18.16-2.06.4-2.66.74-1.01.56-1.51,1.47-1.51,2.7,0,.94.34,1.68,1.03,2.22Z"/><path class="cls-3" d="M228.68,133.99c.67-.11,1.18-.48,1.52-1.12.35-.64.52-1.37.52-2.2,0-.08,0-.16,0-.23,0-.07-.02-.14-.04-.23h-1.99v-3.94h3.87v3.63c0,1.54-.32,2.85-.96,3.93-.64,1.08-1.61,1.7-2.91,1.85v-1.7Z"/><path class="cls-3" d="M237.5,146.74c.1,1.08.37,1.92.83,2.49.84,1.05,2.29,1.57,4.35,1.57,1.23,0,2.31-.26,3.25-.79.93-.52,1.4-1.33,1.4-2.43,0-.83-.37-1.46-1.12-1.9-.48-.26-1.42-.57-2.83-.92l-2.62-.65c-1.68-.41-2.91-.87-3.71-1.37-1.42-.88-2.13-2.1-2.13-3.65,0-1.83.67-3.31,2-4.44,1.34-1.13,3.13-1.7,5.39-1.7,2.95,0,5.08.86,6.39,2.57.82,1.08,1.21,2.25,1.19,3.5h-3.07c-.06-.73-.33-1.4-.8-1.99-.76-.85-2.09-1.28-3.98-1.28-1.26,0-2.21.23-2.86.7-.65.47-.97,1.09-.97,1.85,0,.84.42,1.51,1.28,2.02.49.3,1.21.56,2.17.79l2.19.52c2.38.57,3.98,1.11,4.79,1.64,1.26.83,1.9,2.14,1.9,3.92s-.66,3.21-1.98,4.46-3.34,1.88-6.04,1.88c-2.91,0-4.98-.65-6.19-1.96-1.21-1.31-1.86-2.92-1.95-4.85h3.13Z"/><path class="cls-3" d="M283.55,128.21c1.83,1.77,2.85,3.78,3.05,6.03h-3.5c-.39-1.71-1.17-3.06-2.33-4.06-1.17-1-2.8-1.5-4.91-1.5-2.57,0-4.64.92-6.22,2.76s-2.37,4.66-2.37,8.45c0,3.11.71,5.63,2.14,7.57,1.43,1.93,3.55,2.9,6.38,2.9,2.6,0,4.58-1.02,5.95-3.05.72-1.07,1.26-2.48,1.62-4.23h3.5c-.31,2.79-1.33,5.14-3.07,7.03-2.08,2.28-4.89,3.41-8.43,3.41-3.05,0-5.61-.93-7.68-2.8-2.73-2.47-4.09-6.29-4.09-11.44,0-3.92,1.02-7.13,3.07-9.64,2.21-2.72,5.27-4.09,9.16-4.09,3.32,0,5.9.89,7.73,2.66Z"/><path class="cls-3" d="M301.44,141.1c.75-.1,1.25-.41,1.5-.94.14-.29.22-.71.22-1.25,0-1.11-.39-1.92-1.18-2.42-.79-.5-1.91-.75-3.38-.75-1.7,0-2.9.46-3.61,1.38-.4.51-.66,1.27-.78,2.27h-3.04c.06-2.39.83-4.06,2.32-4.99,1.49-.94,3.21-1.4,5.17-1.4,2.27,0,4.12.43,5.54,1.3,1.41.87,2.11,2.22,2.11,4.05v11.15c0,.34.07.61.21.81.14.2.43.31.88.31.14,0,.31,0,.49-.03.18-.02.37-.04.58-.08v2.4c-.51.14-.89.23-1.16.27-.27.04-.63.05-1.08.05-1.12,0-1.93-.4-2.44-1.19-.26-.42-.45-1.02-.56-1.79-.66.87-1.61,1.62-2.85,2.26-1.24.64-2.61.96-4.1.96-1.79,0-3.26-.54-4.4-1.63-1.14-1.09-1.71-2.45-1.71-4.09,0-1.79.56-3.18,1.68-4.17,1.12-.99,2.59-1.59,4.41-1.82l5.18-.65ZM294.59,149.89c.69.54,1.5.81,2.44.81,1.14,0,2.25-.26,3.32-.79,1.81-.88,2.71-2.31,2.71-4.31v-2.62c-.4.25-.91.47-1.53.63-.62.17-1.24.29-1.84.36l-1.96.25c-1.18.16-2.06.4-2.66.74-1.01.56-1.51,1.47-1.51,2.7,0,.94.34,1.68,1.03,2.22Z"/><path class="cls-3" d="M311.64,133.46h3.09v2.75c.92-1.13,1.88-1.94,2.91-2.44,1.02-.49,2.16-.74,3.41-.74,2.75,0,4.6.96,5.56,2.87.53,1.05.79,2.55.79,4.5v12.41h-3.31v-12.19c0-1.18-.17-2.13-.52-2.85-.58-1.2-1.62-1.81-3.14-1.81-.77,0-1.4.08-1.9.23-.89.27-1.67.79-2.35,1.59-.54.64-.89,1.3-1.06,1.98-.16.68-.24,1.65-.24,2.92v10.14h-3.25v-19.35Z"/><path class="cls-3" d="M342.59,141.1c.75-.1,1.25-.41,1.5-.94.14-.29.22-.71.22-1.25,0-1.11-.39-1.92-1.18-2.42-.79-.5-1.91-.75-3.38-.75-1.7,0-2.9.46-3.61,1.38-.4.51-.66,1.27-.78,2.27h-3.04c.06-2.39.83-4.06,2.32-4.99,1.49-.94,3.21-1.4,5.17-1.4,2.27,0,4.12.43,5.54,1.3,1.41.87,2.11,2.22,2.11,4.05v11.15c0,.34.07.61.21.81.14.2.43.31.88.31.14,0,.31,0,.49-.03.18-.02.37-.04.58-.08v2.4c-.51.14-.89.23-1.16.27-.27.04-.63.05-1.08.05-1.12,0-1.93-.4-2.44-1.19-.26-.42-.45-1.02-.56-1.79-.66.87-1.61,1.62-2.85,2.26-1.24.64-2.61.96-4.1.96-1.79,0-3.26-.54-4.4-1.63-1.14-1.09-1.71-2.45-1.71-4.09,0-1.79.56-3.18,1.68-4.17,1.12-.99,2.59-1.59,4.41-1.82l5.18-.65ZM335.75,149.89c.69.54,1.5.81,2.44.81,1.14,0,2.25-.26,3.32-.79,1.81-.88,2.71-2.31,2.71-4.31v-2.62c-.4.25-.91.47-1.53.63-.62.17-1.24.29-1.84.36l-1.96.25c-1.18.16-2.06.4-2.66.74-1.01.56-1.51,1.47-1.51,2.7,0,.94.34,1.68,1.03,2.22Z"/><path class="cls-3" d="M363.43,134.06c.58.36,1.23.99,1.96,1.9v-9.77h3.13v26.63h-2.93v-2.69c-.76,1.19-1.65,2.05-2.68,2.58-1.03.53-2.21.79-3.55.79-2.15,0-4.01-.91-5.58-2.72-1.57-1.81-2.36-4.22-2.36-7.24,0-2.82.72-5.26,2.15-7.33,1.43-2.07,3.48-3.1,6.15-3.1,1.48,0,2.71.31,3.71.94ZM356.17,148.57c.87,1.4,2.28,2.1,4.21,2.1,1.5,0,2.73-.65,3.69-1.94.96-1.29,1.45-3.15,1.45-5.57s-.5-4.25-1.49-5.43c-.99-1.17-2.22-1.76-3.68-1.76-1.63,0-2.95.63-3.96,1.88-1.01,1.25-1.52,3.1-1.52,5.53,0,2.07.44,3.81,1.31,5.2Z"/><path class="cls-3" d="M373.38,126.27h3.31v3.69h-3.31v-3.69ZM373.38,133.55h3.31v19.26h-3.31v-19.26Z"/><path class="cls-3" d="M391.97,141.1c.75-.1,1.25-.41,1.5-.94.14-.29.22-.71.22-1.25,0-1.11-.39-1.92-1.18-2.42-.79-.5-1.91-.75-3.38-.75-1.7,0-2.9.46-3.61,1.38-.4.51-.66,1.27-.78,2.27h-3.04c.06-2.39.83-4.06,2.32-4.99,1.49-.94,3.21-1.4,5.17-1.4,2.27,0,4.12.43,5.54,1.3,1.41.87,2.11,2.22,2.11,4.05v11.15c0,.34.07.61.21.81.14.2.43.31.88.31.14,0,.31,0,.49-.03.18-.02.37-.04.58-.08v2.4c-.51.14-.89.23-1.16.27-.27.04-.63.05-1.08.05-1.12,0-1.93-.4-2.44-1.19-.26-.42-.45-1.02-.56-1.79-.66.87-1.61,1.62-2.85,2.26-1.24.64-2.61.96-4.1.96-1.79,0-3.26-.54-4.4-1.63-1.14-1.09-1.71-2.45-1.71-4.09,0-1.79.56-3.18,1.68-4.17,1.12-.99,2.59-1.59,4.41-1.82l5.18-.65ZM385.12,149.89c.69.54,1.5.81,2.44.81,1.14,0,2.25-.26,3.32-.79,1.81-.88,2.71-2.31,2.71-4.31v-2.62c-.4.25-.91.47-1.53.63-.62.17-1.24.29-1.84.36l-1.96.25c-1.18.16-2.06.4-2.66.74-1.01.56-1.51,1.47-1.51,2.7,0,.94.34,1.68,1.03,2.22Z"/><path class="cls-3" d="M402.17,133.46h3.09v2.75c.92-1.13,1.88-1.94,2.91-2.44,1.02-.49,2.16-.74,3.41-.74,2.75,0,4.6.96,5.56,2.87.53,1.05.79,2.55.79,4.5v12.41h-3.31v-12.19c0-1.18-.17-2.13-.52-2.85-.58-1.2-1.62-1.81-3.14-1.81-.77,0-1.4.08-1.9.23-.89.27-1.67.79-2.35,1.59-.54.64-.89,1.3-1.06,1.98-.16.68-.24,1.65-.24,2.92v10.14h-3.25v-19.35Z"/><path class="cls-3" d="M65.4,165.27h4.06l9.63,26.54h-3.94l-2.69-7.95h-10.5l-2.87,7.95h-3.69l9.99-26.54ZM71.31,180.94l-4.03-11.73-4.28,11.73h8.31Z"/><path class="cls-3" d="M81.66,172.55h3.18v2.57c.65-.88,1.36-1.56,2.14-2.04,1.1-.72,2.39-1.08,3.88-1.08,2.2,0,4.06.84,5.6,2.52,1.53,1.68,2.3,4.08,2.3,7.2,0,4.22-1.11,7.23-3.32,9.03-1.4,1.14-3.04,1.72-4.9,1.72-1.46,0-2.69-.32-3.68-.96-.58-.36-1.23-.98-1.94-1.86v9.88h-3.25v-26.97ZM93.89,187.72c1.01-1.27,1.51-3.17,1.51-5.7,0-1.54-.22-2.87-.67-3.97-.85-2.13-2.39-3.2-4.64-3.2s-3.81,1.13-4.64,3.38c-.45,1.2-.67,2.73-.67,4.59,0,1.49.22,2.76.67,3.81.85,2,2.39,3,4.64,3,1.52,0,2.79-.64,3.8-1.91Z"/><path class="cls-3" d="M102.24,172.55h3.18v2.57c.65-.88,1.36-1.56,2.14-2.04,1.1-.72,2.39-1.08,3.88-1.08,2.2,0,4.06.84,5.6,2.52,1.53,1.68,2.3,4.08,2.3,7.2,0,4.22-1.11,7.23-3.32,9.03-1.4,1.14-3.04,1.72-4.9,1.72-1.46,0-2.69-.32-3.68-.96-.58-.36-1.23-.98-1.94-1.86v9.88h-3.25v-26.97ZM114.47,187.72c1.01-1.27,1.51-3.17,1.51-5.7,0-1.54-.22-2.87-.67-3.97-.85-2.13-2.39-3.2-4.64-3.2s-3.81,1.13-4.64,3.38c-.45,1.2-.67,2.73-.67,4.59,0,1.49.22,2.76.67,3.81.85,2,2.39,3,4.64,3,1.52,0,2.79-.64,3.8-1.91Z"/><path class="cls-3" d="M123.18,172.46h3.09v3.34c.25-.65.87-1.44,1.86-2.38.99-.93,2.13-1.4,3.41-1.4.06,0,.16,0,.31.02.14.01.39.04.74.07v3.43c-.19-.04-.37-.06-.53-.07-.16-.01-.34-.02-.53-.02-1.64,0-2.9.53-3.78,1.58-.88,1.05-1.32,2.27-1.32,3.64v11.13h-3.25v-19.35Z"/><path class="cls-3" d="M147.36,173c1.28.64,2.26,1.48,2.93,2.5.65.98,1.08,2.11,1.29,3.41.19.89.29,2.31.29,4.26h-14.07c.06,1.97.52,3.55,1.38,4.74.86,1.19,2.19,1.78,4,1.78,1.69,0,3.03-.56,4.03-1.69.56-.65.96-1.41,1.19-2.27h3.2c-.08.71-.36,1.5-.84,2.38-.48.87-1.01,1.59-1.59,2.14-.98.96-2.19,1.61-3.64,1.95-.78.19-1.66.29-2.64.29-2.39,0-4.42-.88-6.09-2.63-1.66-1.75-2.5-4.21-2.5-7.36s.84-5.63,2.51-7.57c1.68-1.94,3.87-2.91,6.57-2.91,1.36,0,2.69.32,3.97.97ZM148.52,180.59c-.13-1.41-.44-2.54-.91-3.38-.88-1.57-2.36-2.35-4.43-2.35-1.48,0-2.72.54-3.73,1.62-1,1.08-1.53,2.45-1.59,4.11h10.66Z"/><path class="cls-3" d="M155.98,172.46h3.09v2.75c.92-1.13,1.88-1.94,2.91-2.44,1.02-.49,2.16-.74,3.41-.74,2.75,0,4.6.96,5.56,2.87.53,1.05.79,2.55.79,4.5v12.41h-3.3v-12.19c0-1.18-.18-2.13-.53-2.85-.58-1.2-1.62-1.81-3.14-1.81-.77,0-1.4.08-1.9.23-.89.27-1.67.79-2.35,1.59-.54.64-.89,1.3-1.06,1.98-.16.68-.24,1.65-.24,2.92v10.14h-3.25v-19.35Z"/><path class="cls-3" d="M177.21,167.06h3.29v5.4h3.09v2.66h-3.09v12.63c0,.67.23,1.13.69,1.35.25.13.67.2,1.26.2.16,0,.33,0,.51-.01s.39-.03.63-.06v2.58c-.37.11-.76.19-1.17.23-.4.05-.84.07-1.31.07-1.52,0-2.55-.39-3.09-1.17-.54-.78-.81-1.79-.81-3.03v-12.81h-2.62v-2.66h2.62v-5.4Z"/><path class="cls-3" d="M186.84,165.27h3.31v3.69h-3.31v-3.69ZM186.84,172.55h3.31v19.26h-3.31v-19.26Z"/><path class="cls-3" d="M207.84,173.49c1.37,1.06,2.19,2.88,2.47,5.47h-3.16c-.19-1.19-.63-2.18-1.32-2.97-.69-.79-1.79-1.18-3.31-1.18-2.07,0-3.55,1.01-4.44,3.03-.58,1.31-.87,2.93-.87,4.85s.41,3.57,1.23,4.89c.82,1.32,2.11,1.98,3.87,1.98,1.35,0,2.42-.41,3.21-1.23.79-.82,1.33-1.95,1.63-3.37h3.16c-.36,2.57-1.26,4.44-2.71,5.63-1.45,1.19-3.29,1.78-5.55,1.78-2.53,0-4.55-.92-6.05-2.77-1.51-1.85-2.26-4.16-2.26-6.93,0-3.4.82-6.04,2.47-7.93,1.65-1.89,3.75-2.84,6.3-2.84,2.18,0,3.95.53,5.32,1.59Z"/><path class="cls-3" d="M225.51,173c1.28.64,2.26,1.48,2.93,2.5.65.98,1.08,2.11,1.29,3.41.19.89.29,2.31.29,4.26h-14.07c.06,1.97.52,3.55,1.38,4.74.86,1.19,2.19,1.78,4,1.78,1.68,0,3.03-.56,4.03-1.69.56-.65.96-1.41,1.19-2.27h3.2c-.08.71-.36,1.5-.84,2.38-.48.87-1.01,1.59-1.59,2.14-.98.96-2.19,1.61-3.64,1.95-.78.19-1.66.29-2.64.29-2.39,0-4.42-.88-6.09-2.63-1.66-1.75-2.5-4.21-2.5-7.36s.84-5.63,2.51-7.57c1.67-1.94,3.87-2.91,6.57-2.91,1.36,0,2.69.32,3.97.97ZM226.68,180.59c-.13-1.41-.44-2.54-.91-3.38-.88-1.57-2.36-2.35-4.42-2.35-1.48,0-2.72.54-3.73,1.62-1,1.08-1.54,2.45-1.59,4.11h10.66Z"/><path class="cls-3" d="M236.07,185.74c.1,1.08.37,1.92.83,2.49.84,1.05,2.29,1.57,4.35,1.57,1.23,0,2.31-.26,3.25-.79.93-.52,1.4-1.33,1.4-2.43,0-.83-.37-1.46-1.12-1.9-.48-.26-1.42-.57-2.83-.92l-2.62-.65c-1.68-.41-2.91-.87-3.71-1.37-1.42-.88-2.13-2.1-2.13-3.65,0-1.83.67-3.31,2-4.44,1.34-1.13,3.13-1.7,5.39-1.7,2.95,0,5.08.86,6.39,2.57.82,1.08,1.21,2.25,1.19,3.5h-3.07c-.06-.73-.33-1.4-.8-1.99-.76-.85-2.09-1.28-3.98-1.28-1.26,0-2.21.23-2.86.7-.65.47-.97,1.09-.97,1.85,0,.84.42,1.51,1.28,2.02.49.3,1.21.56,2.17.79l2.19.52c2.38.57,3.98,1.11,4.79,1.64,1.26.83,1.9,2.14,1.9,3.92s-.66,3.21-1.98,4.46-3.34,1.88-6.04,1.88c-2.91,0-4.98-.65-6.19-1.96-1.21-1.31-1.86-2.92-1.95-4.85h3.13Z"/><path class="cls-3" d="M252.64,165.18h3.25v9.9c.77-.98,1.46-1.66,2.08-2.06,1.05-.69,2.35-1.03,3.92-1.03,2.81,0,4.71.98,5.71,2.94.54,1.07.81,2.56.81,4.46v12.41h-3.34v-12.19c0-1.42-.18-2.46-.54-3.13-.59-1.06-1.7-1.59-3.32-1.59-1.35,0-2.57.46-3.67,1.39-1.1.93-1.64,2.68-1.64,5.26v10.26h-3.25v-26.63Z"/><path class="cls-3" d="M273.22,165.27h3.31v3.69h-3.31v-3.69ZM273.22,172.55h3.31v19.26h-3.31v-19.26Z"/><path class="cls-3" d="M281.16,172.55h3.18v2.57c.65-.88,1.37-1.56,2.14-2.04,1.1-.72,2.39-1.08,3.88-1.08,2.2,0,4.06.84,5.6,2.52,1.53,1.68,2.3,4.08,2.3,7.2,0,4.22-1.11,7.23-3.32,9.03-1.4,1.14-3.04,1.72-4.9,1.72-1.46,0-2.69-.32-3.68-.96-.58-.36-1.23-.98-1.94-1.86v9.88h-3.25v-26.97ZM293.4,187.72c1.01-1.27,1.51-3.17,1.51-5.7,0-1.54-.22-2.87-.67-3.97-.85-2.13-2.39-3.2-4.64-3.2s-3.81,1.13-4.64,3.38c-.45,1.2-.67,2.73-.67,4.59,0,1.49.22,2.76.67,3.81.85,2,2.39,3,4.64,3,1.52,0,2.79-.64,3.8-1.91Z"/><path class="cls-3" d="M315.08,183.25c.08,1.51.42,2.73,1.03,3.67,1.15,1.76,3.17,2.64,6.07,2.64,1.3,0,2.48-.19,3.55-.58,2.07-.75,3.1-2.08,3.1-4.01,0-1.45-.44-2.48-1.31-3.09-.89-.6-2.27-1.13-4.17-1.57l-3.48-.81c-2.28-.53-3.89-1.11-4.83-1.75-1.63-1.11-2.45-2.76-2.45-4.97,0-2.38.8-4.34,2.41-5.87,1.61-1.53,3.88-2.29,6.82-2.29,2.71,0,5.01.67,6.9,2.01,1.89,1.34,2.84,3.49,2.84,6.44h-3.38c-.17-1.42-.54-2.51-1.11-3.27-1.05-1.38-2.83-2.08-5.35-2.08-2.03,0-3.49.45-4.38,1.34-.89.89-1.33,1.93-1.33,3.11,0,1.3.53,2.25,1.58,2.85.69.39,2.25.87,4.67,1.45l3.61.85c1.74.41,3.08.97,4.03,1.68,1.63,1.24,2.45,3.04,2.45,5.4,0,2.94-1.04,5.04-3.13,6.31s-4.51,1.9-7.27,1.9c-3.22,0-5.74-.84-7.56-2.53-1.82-1.67-2.71-3.94-2.68-6.81h3.38Z"/><path class="cls-3" d="M337.62,167.06h3.29v5.4h3.09v2.66h-3.09v12.63c0,.67.23,1.13.69,1.35.25.13.67.2,1.26.2.16,0,.33,0,.51-.01s.39-.03.63-.06v2.58c-.37.11-.76.19-1.17.23-.4.05-.84.07-1.31.07-1.52,0-2.55-.39-3.09-1.17-.54-.78-.81-1.79-.81-3.03v-12.81h-2.62v-2.66h2.62v-5.4Z"/><path class="cls-3" d="M347.34,172.46h3.09v3.34c.25-.65.87-1.44,1.86-2.38.99-.93,2.12-1.4,3.41-1.4.06,0,.16,0,.31.02.14.01.39.04.74.07v3.43c-.19-.04-.37-.06-.53-.07-.16-.01-.34-.02-.53-.02-1.64,0-2.9.53-3.78,1.58-.88,1.05-1.32,2.27-1.32,3.64v11.13h-3.25v-19.35Z"/><path class="cls-3" d="M369.94,180.1c.75-.1,1.25-.41,1.5-.94.14-.29.22-.71.22-1.25,0-1.11-.39-1.92-1.18-2.42-.79-.5-1.91-.75-3.38-.75-1.7,0-2.9.46-3.61,1.38-.4.51-.66,1.27-.78,2.27h-3.04c.06-2.39.83-4.06,2.32-4.99,1.49-.94,3.21-1.4,5.17-1.4,2.27,0,4.12.43,5.54,1.3,1.41.87,2.11,2.22,2.11,4.05v11.15c0,.34.07.61.21.81.14.2.43.31.88.31.14,0,.31,0,.49-.03.18-.02.37-.04.58-.08v2.4c-.51.14-.89.23-1.16.27-.27.04-.63.05-1.08.05-1.12,0-1.93-.4-2.44-1.19-.26-.42-.45-1.02-.56-1.79-.66.87-1.61,1.62-2.85,2.26-1.24.64-2.61.96-4.1.96-1.79,0-3.26-.54-4.4-1.63-1.14-1.09-1.71-2.45-1.71-4.09,0-1.79.56-3.18,1.68-4.17,1.12-.99,2.59-1.59,4.41-1.82l5.18-.65ZM363.1,188.89c.69.54,1.5.81,2.44.81,1.14,0,2.25-.26,3.32-.79,1.81-.88,2.71-2.31,2.71-4.31v-2.62c-.4.25-.91.47-1.53.63-.62.17-1.24.29-1.84.36l-1.96.25c-1.18.16-2.06.4-2.66.74-1.01.56-1.51,1.47-1.51,2.7,0,.94.34,1.68,1.03,2.22Z"/><path class="cls-3" d="M380.8,167.06h3.29v5.4h3.09v2.66h-3.09v12.63c0,.67.23,1.13.69,1.35.25.13.67.2,1.26.2.16,0,.33,0,.51-.01s.39-.03.63-.06v2.58c-.37.11-.76.19-1.17.23-.4.05-.84.07-1.31.07-1.52,0-2.55-.39-3.09-1.17-.54-.78-.81-1.79-.81-3.03v-12.81h-2.62v-2.66h2.62v-5.4Z"/><path class="cls-3" d="M402.38,173c1.28.64,2.26,1.48,2.93,2.5.65.98,1.08,2.11,1.29,3.41.19.89.29,2.31.29,4.26h-14.07c.06,1.97.52,3.55,1.38,4.74.86,1.19,2.19,1.78,4,1.78,1.68,0,3.03-.56,4.03-1.69.56-.65.96-1.41,1.19-2.27h3.2c-.08.71-.36,1.5-.84,2.38-.48.87-1.01,1.59-1.59,2.14-.98.96-2.19,1.61-3.64,1.95-.78.19-1.66.29-2.64.29-2.39,0-4.42-.88-6.09-2.63-1.66-1.75-2.5-4.21-2.5-7.36s.84-5.63,2.51-7.57c1.67-1.94,3.87-2.91,6.57-2.91,1.36,0,2.69.32,3.97.97ZM403.55,180.59c-.13-1.41-.44-2.54-.91-3.38-.88-1.57-2.36-2.35-4.42-2.35-1.48,0-2.72.54-3.73,1.62-1,1.08-1.54,2.45-1.59,4.11h10.66Z"/><path class="cls-3" d="M421.77,173.24c.61.42,1.24,1.04,1.87,1.84v-2.44h3v17.6c0,2.46-.36,4.4-1.08,5.82-1.34,2.63-3.88,3.94-7.62,3.94-2.08,0-3.82-.47-5.24-1.4-1.42-.93-2.21-2.39-2.38-4.38h3.31c.16.87.47,1.54.93,2.01.73.72,1.88,1.08,3.45,1.08,2.48,0,4.1-.88,4.87-2.64.46-1.04.67-2.88.63-5.55-.65.99-1.43,1.72-2.34,2.2-.91.48-2.12.72-3.62.72-2.09,0-3.91-.74-5.48-2.23-1.57-1.49-2.35-3.95-2.35-7.38,0-3.24.79-5.77,2.37-7.59,1.58-1.82,3.48-2.73,5.71-2.73,1.51,0,2.83.37,3.96,1.12ZM422.16,176.73c-.98-1.16-2.23-1.73-3.76-1.73-2.28,0-3.83,1.07-4.67,3.22-.44,1.14-.67,2.64-.67,4.5,0,2.18.44,3.84,1.32,4.98.88,1.14,2.06,1.71,3.55,1.71,2.32,0,3.96-1.05,4.91-3.16.53-1.19.79-2.58.79-4.17,0-2.4-.49-4.17-1.47-5.33Z"/><path class="cls-3" d="M443.68,172.46h3.59c-.46,1.24-1.48,4.07-3.05,8.5-1.18,3.33-2.17,6.04-2.96,8.13-1.88,4.93-3.2,7.94-3.97,9.03-.77,1.08-2.09,1.62-3.97,1.62-.46,0-.81-.02-1.06-.05s-.55-.1-.91-.2v-2.96c.56.16.97.25,1.23.29.25.04.48.05.67.05.6,0,1.04-.1,1.33-.3.28-.2.52-.44.71-.73.06-.1.28-.59.65-1.48.37-.89.64-1.55.81-1.98l-7.15-19.92h3.69l5.18,15.76,5.22-15.76Z"/><line class="cls-1" x1="651.37" y1="85" x2="651.37" y2="195"/></svg>